<?xml version="1.0" encoding="UTF-8"?>
<svg version="1.1" xmlns="http://www.w3.org/2000/svg" width="2000" height="2000">
<path d="M0 0 C660 0 1320 0 2000 0 C2000 660 2000 1320 2000 2000 C1340 2000 680 2000 0 2000 C0 1340 0 680 0 0 Z " fill="#000000" transform="translate(0,0)"/>
<path d="M0 0 C0.0234248 17.6380601 0.04102606 35.2761153 0.05181217 52.91418743 C0.05695485 61.10498769 0.06395864 69.29577824 0.07543945 77.48657227 C0.08544854 84.63082648 0.09186816 91.77507367 0.09408849 98.91933471 C0.09538508 102.69745461 0.09840367 106.47555441 0.10573006 110.25366783 C0.11258878 113.81998673 0.11459722 117.38627752 0.11310768 120.95260239 C0.11350792 122.86451835 0.11885121 124.77643134 0.12442017 126.68833923 C0.0546716 186.08345515 -26.0167372 244.89935244 -67.75 286.8125 C-68.83161479 287.87674941 -69.9147715 288.93943578 -71 290 C-71.825 290.825 -72.65 291.65 -73.5 292.5 C-74.325 293.325 -75.15 294.15 -76 295 C-76.73959961 295.76896606 -76.73959961 295.76896606 -77.49414062 296.5534668 C-81.71705587 300.89361632 -86.16470569 304.67439383 -91 308.3125 C-91.74564209 308.87517578 -92.49128418 309.43785156 -93.25952148 310.01757812 C-117.53998822 328.18989729 -144.67352796 340.92363033 -171.87658691 354.07049561 C-180.58044777 358.27696521 -189.26882729 362.5148248 -197.95516968 366.75732422 C-202.21681192 368.83834296 -206.47956209 370.91708982 -210.7421875 372.99609375 C-216.74119557 375.92235722 -222.74006812 378.84889834 -228.73883057 381.77566528 C-247.12984798 390.74854245 -265.52266848 399.71769097 -283.91955566 408.67852783 C-301.56415061 417.27309572 -319.20374925 425.87789285 -336.84277344 434.48388672 C-346.24822767 439.0727108 -355.65412272 443.66063127 -365.05993652 448.24871826 C-367.62068959 449.49783781 -370.18143972 450.74696337 -372.7421875 451.99609375 C-373.58740967 452.40839233 -374.43263184 452.82069092 -375.3034668 453.2454834 C-380.44868241 455.75535065 -385.59379557 458.2654278 -390.73883057 460.77566528 C-409.92932286 470.13860189 -429.12181739 479.49739868 -448.31884766 488.84692383 C-456.70384363 492.93093989 -465.08740198 497.01787723 -473.46875 501.109375 C-474.34031235 501.53473038 -475.21187469 501.96008575 -476.10984802 502.39833069 C-480.46599131 504.5243572 -484.82155883 506.65154708 -489.17602539 508.78100586 C-497.04646586 512.62727423 -504.92465507 516.45359122 -512.83984375 520.20703125 C-538.02057837 532.1641517 -560.84760011 545.52215743 -581 565 C-581.93457031 565.88300781 -582.86914062 566.76601562 -583.83203125 567.67578125 C-618.33309585 601.01876816 -633.96841793 645.84591096 -636 693 C-634.42025391 691.85724609 -634.42025391 691.85724609 -632.80859375 690.69140625 C-611.02393766 675.04212465 -587.56666946 662.88933151 -563.33789062 651.46533203 C-554.15353909 647.11888619 -545.07898349 642.56103248 -536 638 C-525.247632 632.600001 -514.476078 627.26391169 -503.59765625 622.12109375 C-495.33809498 618.19988789 -487.16937617 614.104647 -479 610 C-470.03890037 605.4975875 -461.06880294 601.03286796 -452 596.75 C-441.24847488 591.66890887 -430.62739927 586.33414349 -420 581 C-408.60639032 575.28130142 -397.20529838 569.60124855 -385.67578125 564.16015625 C-375.91277197 559.52953658 -366.27347782 554.65239162 -356.61761475 549.80368042 C-346.70526498 544.82808909 -336.76636343 539.93060361 -326.73828125 535.19140625 C-318.09513693 531.08746722 -309.54955744 526.79433919 -301 522.5 C-291.62228419 517.7897009 -282.23953253 513.10735019 -272.75 508.625 C-262.4191084 503.74353859 -252.21086047 498.62616947 -242 493.5 C-230.97361136 487.96442302 -219.93464231 482.47919577 -208.77734375 477.2109375 C-198.98075264 472.56146683 -189.30635989 467.66889375 -179.6161499 462.802948 C-169.75104615 457.85109213 -159.85980592 452.9769873 -149.87890625 448.26171875 C-140.85220243 443.97500574 -131.92971314 439.48406616 -123 435 C-112.34088782 429.64751404 -101.66405034 424.35693585 -90.87890625 419.26171875 C-81.05414273 414.59601326 -71.34993003 409.69087026 -61.63079834 404.81027222 C-51.44963777 399.69962897 -41.24117119 394.66538018 -30.94287109 389.79370117 C-23.14709694 386.0984145 -15.43322282 382.24750109 -7.73681641 378.34985352 C-6.86718262 377.91084717 -5.99754883 377.47184082 -5.1015625 377.01953125 C-3.94648193 376.43328979 -3.94648193 376.43328979 -2.76806641 375.83520508 C-1 375 -1 375 0 375 C0.11788113 392.83138589 0.20549232 410.66266785 0.25906086 428.49436188 C0.28461762 436.77778814 0.31932434 445.0609695 0.37719727 453.34423828 C0.42773587 460.58133469 0.45945354 467.81825346 0.47044247 475.05552149 C0.47684506 478.87190982 0.49139136 482.68779093 0.52865028 486.50401306 C0.77071716 512.3606456 -1.3781288 537.10875987 -9 562 C-9.28871381 562.94973442 -9.57742762 563.89946884 -9.87489033 564.87798309 C-18.3027474 592.33138368 -31.08338019 618.4640326 -49 641 C-49.75796875 641.96808594 -50.5159375 642.93617188 -51.296875 643.93359375 C-65.19261914 661.30327392 -80.813839 676.36680374 -98.75 689.5 C-99.43964844 690.00958252 -100.12929687 690.51916504 -100.83984375 691.04418945 C-114.17787277 700.68176575 -128.66537708 708.04702779 -143.37597656 715.32861328 C-146.46988182 716.86009155 -149.55951956 718.39989754 -152.6484375 719.94140625 C-163.54942726 725.37063641 -174.49470724 730.69856717 -185.48974609 735.93453979 C-194.88932968 740.41316136 -204.24196457 744.98539508 -213.58929443 749.5718689 C-218.69637839 752.07764809 -223.80533397 754.57960715 -228.9140625 757.08203125 C-229.94032745 757.58483109 -230.96659241 758.08763092 -232.0239563 758.60566711 C-241.63438686 763.31314758 -251.25318235 768.00334714 -260.875 772.6875 C-262.46370674 773.46101413 -264.05241116 774.23453302 -265.64111328 775.00805664 C-268.02170679 776.1671329 -270.40230308 777.32620344 -272.78292847 778.48521423 C-281.98262087 782.96452143 -291.17886587 787.45089331 -300.375 791.9375 C-301.64957062 792.55931656 -301.64957062 792.55931656 -302.94989014 793.19369507 C-307.24754632 795.29036738 -311.54517046 797.38710534 -315.84277344 799.48388672 C-323.54148459 803.24000846 -331.24051133 806.99548324 -338.93951416 810.75100708 C-343.20968902 812.83397824 -347.47984348 814.91699124 -351.75 817 C-353.45833324 817.83333353 -355.16666657 818.66666687 -356.875 819.5 C-357.720625 819.9125 -358.56625 820.325 -359.4375 820.75 C-367.12499985 824.49999993 -367.12499985 824.49999993 -369.68746948 825.74998474 C-371.39590493 826.58336814 -373.10433999 827.41675233 -374.81277466 828.25013733 C-379.08204241 830.3327113 -383.35131694 832.41527137 -387.62060547 834.49780273 C-395.3267976 838.25685028 -403.03294028 842.015999 -410.73883057 845.77566528 C-426.71209275 853.56893285 -442.68568039 861.36152082 -458.6640625 869.14428711 C-461.87524401 870.7084028 -465.08617097 872.27303916 -468.296875 873.83813477 C-475.88876178 877.53849823 -483.48233357 881.23528236 -491.08122253 884.92124939 C-539.47900603 908.35983182 -539.47900603 908.35983182 -582 941 C-582.66515625 941.61101563 -583.3303125 942.22203125 -584.015625 942.8515625 C-594.72123649 953.07846778 -603.09427596 965.56268969 -611 978 C-611.93972656 979.45792969 -611.93972656 979.45792969 -612.8984375 980.9453125 C-627.62141394 1004.86182174 -634.39147448 1033.16414746 -635.5625 1061 C-635.60568359 1061.96550781 -635.64886719 1062.93101563 -635.69335938 1063.92578125 C-635.79841713 1066.28374425 -635.90056914 1068.64179416 -636 1071 C-640.07461164 1067.08355259 -643.64830669 1062.90205012 -647.1875 1058.5 C-647.75774902 1057.79439941 -648.32799805 1057.08879883 -648.91552734 1056.36181641 C-653.20478705 1051.03535536 -657.39713668 1045.64159938 -661.54296875 1040.203125 C-663.68117802 1037.40269949 -665.86059415 1034.63697409 -668.05029297 1031.87670898 C-670.38336035 1028.93060577 -672.69516061 1025.96821892 -675 1023 C-675.4552002 1022.41524902 -675.91040039 1021.83049805 -676.37939453 1021.22802734 C-684.25509856 1011.0357752 -690.84363607 1000.30677027 -697 989 C-697.37253906 988.31824707 -697.74507812 987.63649414 -698.12890625 986.93408203 C-708.72460637 967.30173545 -716.6222775 945.55271748 -720.37890625 923.5546875 C-720.87276241 920.72821514 -721.44607084 917.97259625 -722.125 915.1875 C-724.75522115 903.44475945 -724.24247298 891.1525274 -724.25 879.1875 C-724.25067474 878.2250235 -724.25134949 877.262547 -724.25204468 876.27090454 C-724.23646697 862.29391611 -723.84394609 848.7286295 -721 835 C-720.82839355 834.11763672 -720.65678711 833.23527344 -720.47998047 832.32617188 C-713.5221684 796.93397679 -698.89447084 762.10932254 -676 734 C-675.26265625 733.07316406 -674.5253125 732.14632812 -673.765625 731.19140625 C-663.54933083 718.49149573 -652.57946692 705.22158642 -639 696 C-639.59522163 692.85714384 -640.54023297 691.00754301 -642.58984375 688.56640625 C-643.12174316 687.92429199 -643.65364258 687.28217773 -644.20166016 686.62060547 C-644.7744873 685.94143066 -645.34731445 685.26225586 -645.9375 684.5625 C-647.13286705 683.11961241 -648.32686295 681.67558787 -649.51953125 680.23046875 C-650.1120166 679.5142334 -650.70450195 678.79799805 -651.31494141 678.06005859 C-654.48752816 674.18143109 -657.50527938 670.1879453 -660.54296875 666.203125 C-662.68121586 663.40264993 -664.86074534 660.63692827 -667.05029297 657.87646484 C-689.91741671 629.00480949 -709.30523147 597.42380752 -717.5234375 561.10351562 C-718.02399584 558.89408394 -718.54279045 556.68937459 -719.0625 554.484375 C-719.41779984 552.94817831 -719.77199088 551.4117247 -720.125 549.875 C-720.28371582 549.1958252 -720.44243164 548.51665039 -720.60595703 547.81689453 C-721.1130885 545.55106738 -721.56661471 543.28112782 -722 541 C-722.18167725 540.05036377 -722.36335449 539.10072754 -722.55053711 538.12231445 C-724.26113367 527.90835079 -724.33838552 517.77791021 -724.31567383 507.4440918 C-724.31253104 504.46690608 -724.33599247 501.49073436 -724.36132812 498.51367188 C-724.40405397 485.43604639 -723.2493419 472.87744861 -721 460 C-720.78972168 458.78215317 -720.78972168 458.78215317 -720.57519531 457.53970337 C-711.1077334 403.43414529 -679.56164877 351.56284927 -636 318 C-635.05640625 317.22785156 -634.1128125 316.45570313 -633.140625 315.66015625 C-612.59760177 299.15795611 -588.14395244 287.69986629 -564.43823242 276.51538086 C-555.22093653 272.15117507 -546.112379 267.57781782 -537 263 C-526.34115425 257.64700377 -515.66403396 252.35692811 -504.87890625 247.26171875 C-495.85220243 242.97500574 -486.92971314 238.48406616 -478 234 C-467.34088782 228.64751404 -456.66405034 223.35693585 -445.87890625 218.26171875 C-436.85220243 213.97500574 -427.92971314 209.48406616 -419 205 C-408.34088782 199.64751404 -397.66405034 194.35693585 -386.87890625 189.26171875 C-377.85220243 184.97500574 -368.92971314 180.48406616 -360 176 C-349.34088782 170.64751404 -338.66405034 165.35693585 -327.87890625 160.26171875 C-318.85220243 155.97500574 -309.92971314 151.48406616 -301 147 C-290.34088782 141.64751404 -279.66405034 136.35693585 -268.87890625 131.26171875 C-259.85220243 126.97500574 -250.92971314 122.48406616 -242 118 C-231.34088782 112.64751404 -220.66405034 107.35693585 -209.87890625 102.26171875 C-200.85220243 97.97500574 -191.92971314 93.48406616 -183 89 C-172.34088782 83.64751404 -161.66405034 78.35693585 -150.87890625 73.26171875 C-141.85220243 68.97500574 -132.92971314 64.48406616 -124 60 C-113.34088782 54.64751404 -102.66405034 49.35693585 -91.87890625 44.26171875 C-82.05414273 39.59601326 -72.34993003 34.69087026 -62.63079834 29.81027222 C-52.44908437 24.69935118 -42.24110543 19.66239994 -31.94067383 14.79370117 C-24.16807198 11.11179062 -16.48345045 7.2628274 -8.82470703 3.34985352 C-7.9582959 2.91084717 -7.09188477 2.47184082 -6.19921875 2.01953125 C-5.43440186 1.62870361 -4.66958496 1.23787598 -3.8815918 0.83520508 C-2 0 -2 0 0 0 Z " fill="#00BE62" transform="translate(1383,464)"/>
<path d="M0 0 C0 108.24 0 216.48 0 328 C-4.34810444 326.55063185 -7.83580512 325.18168404 -11.82421875 323.09375 C-12.92507813 322.52011719 -14.0259375 321.94648437 -15.16015625 321.35546875 C-16.32417969 320.74316406 -17.48820312 320.13085938 -18.6875 319.5 C-19.911264 318.86030518 -21.13522444 318.22098603 -22.359375 317.58203125 C-25.90939378 315.72730455 -29.45514014 313.86456825 -33 312 C-33.88510254 311.53464844 -34.77020508 311.06929687 -35.68212891 310.58984375 C-38.69720705 309.00368019 -41.71159433 307.41622558 -44.72436523 305.82568359 C-52.70844194 301.61458293 -60.72585921 297.46806201 -68.74121094 293.31689453 C-78.90131032 288.05424266 -89.04747377 282.76524137 -99.18945312 277.46777344 C-103.95885182 274.9770138 -108.7294963 272.48864238 -113.5 270 C-115.41667247 269.00001112 -117.33333914 268.00001113 -119.25 267 C-120.19875 266.505 -121.1475 266.01 -122.125 265.5 C-130.75 261 -130.75 261 -133.62402344 259.50048828 C-135.5439221 258.49881619 -137.46384404 257.49718871 -139.38378906 256.49560547 C-144.12619636 254.02155056 -148.86821884 251.54676427 -153.609375 249.0703125 C-163.98055474 243.65433197 -174.36048187 238.25572723 -184.75 232.875 C-193.03875587 228.58209053 -201.31661271 224.27059632 -209.56591797 219.90234375 C-214.41124846 217.34309523 -219.27788681 214.82765049 -224.15625 212.33203125 C-225.44226782 211.67253781 -226.7282375 211.01295047 -228.01416016 210.35327148 C-229.91254261 209.37940659 -231.8116418 208.40717114 -233.71405029 207.44119263 C-266.3826742 190.85197741 -266.3826742 190.85197741 -273 171 C-273.75409169 157.28133196 -272.77931345 147.07720739 -264 136 C-256.8691837 128.18096291 -247.99949398 124.10440745 -238.625 119.625 C-236.50757143 118.59860008 -234.3921384 117.56820184 -232.27736473 116.53634453 C-230.81203065 115.82158596 -229.34618474 115.10787505 -227.87966347 114.3955555 C-222.77534904 111.90446555 -217.74613602 109.29855327 -212.73583984 106.62451172 C-200.35134154 100.06632391 -187.79800423 93.84355452 -175.25614929 87.59384346 C-171.83428367 85.88799563 -168.41377943 84.17942244 -164.99316406 82.47106934 C-155.59757535 77.77923083 -146.1999603 73.09145685 -136.80230713 68.40375519 C-128.17172009 64.09862482 -119.54159438 59.79257586 -110.91309738 55.48325777 C-107.53029615 53.79391142 -104.1470843 52.10539956 -100.76281738 50.41899109 C-87.47106072 43.79539849 -74.21363453 37.12465976 -61.09527588 30.16229248 C-55.088339 26.9782786 -49.01263982 23.9344349 -42.9296875 20.8984375 C-41.70364702 20.28507852 -40.4776658 19.67160108 -39.2517395 19.05801392 C-36.73373631 17.79828937 -34.21504431 16.53995698 -31.69580078 15.28271484 C-28.4631892 13.66931421 -25.23244883 12.05220354 -22.0021801 10.43411827 C-19.49459246 9.17852697 -16.98606477 7.92482364 -14.4772377 6.67171097 C-12.70562923 5.78640113 -10.93482438 4.89948374 -9.16403198 4.01254272 C-7.57439133 3.22008652 -7.57439133 3.22008652 -5.95263672 2.41162109 C-5.01733124 1.94436615 -4.08202576 1.47711121 -3.11837769 0.99569702 C-1 0 -1 0 0 0 Z " fill="#00BE62" transform="translate(1383,1208)"/>
</svg>
