<?xml version="1.0" encoding="UTF-8"?>
<svg version="1.1" xmlns="http://www.w3.org/2000/svg" width="500" height="500">
<path d="M0 0 C0.10051656 4.97634293 0.17222578 9.95206737 0.21972656 14.92919922 C0.23957276 16.61452554 0.26665893 18.29978561 0.30175781 19.98486328 C0.6248863 35.9227007 -1.56791337 49.62317669 -9 64 C-9.66 64 -10.32 64 -11 64 C-11.3403125 65.0828125 -11.3403125 65.0828125 -11.6875 66.1875 C-13.29819721 69.63899403 -15.1821393 71.42717067 -18 74 C-19.00740234 74.92619141 -19.00740234 74.92619141 -20.03515625 75.87109375 C-25.72132797 81 -25.72132797 81 -28 81 C-28 81.66 -28 82.32 -28 83 C-38.73196049 88.3941822 -49.50065443 93.70539576 -60.3125 98.9375 C-61.02856415 99.28449951 -61.7446283 99.63149902 -62.48239136 99.98901367 C-70.8243338 104.03142696 -79.1753707 108.05196021 -87.5625 112 C-95.10860282 115.55217776 -102.57701991 119.24391252 -110.02197266 123.00292969 C-114.13930209 125.07836457 -118.26589507 127.13537297 -122.3918457 129.19360352 C-125.31961654 130.65510863 -128.24247846 132.12394011 -131.15625 133.61328125 C-132.0534375 134.07089844 -132.950625 134.52851563 -133.875 135 C-134.63554687 135.391875 -135.39609375 135.78375 -136.1796875 136.1875 C-138 137 -138 137 -140 137 C-140 137.66 -140 138.32 -140 139 C-140.99 139 -141.98 139 -143 139 C-143 139.66 -143 140.32 -143 141 C-143.66 141 -144.32 141 -145 141 C-145 141.66 -145 142.32 -145 143 C-145.66 143 -146.32 143 -147 143 C-147 143.66 -147 144.32 -147 145 C-147.66 145 -148.32 145 -149 145 C-149.66 146.65 -150.32 148.3 -151 150 C-151.66 150 -152.32 150 -153 150 C-153.103125 150.515625 -153.20625 151.03125 -153.3125 151.5625 C-154 154 -154 154 -155.4375 157.0625 C-157.55680415 161.82054559 -158.21365964 166.88416212 -159 172 C-158.34 172 -157.68 172 -157 172 C-157 171.34 -157 170.68 -157 170 C-151.4281297 166.72242924 -146.44045119 164.10407735 -140 163 C-140 162.34 -140 161.68 -140 161 C-138.52853516 160.38125 -138.52853516 160.38125 -137.02734375 159.75 C-129.54123631 156.56187167 -122.29167415 153.18753265 -115.15576172 149.27246094 C-106.47667773 144.55806356 -97.4940118 140.44241825 -88.56298828 136.23242188 C-86.18284959 135.08792386 -83.83971804 133.88886996 -81.49609375 132.671875 C-78 131 -78 131 -75 131 C-75 130.34 -75 129.68 -75 129 C-73.989375 128.67 -72.97875 128.34 -71.9375 128 C-67.77356299 126.44126787 -63.90239996 124.42621586 -60 122.3125 C-46.5929265 115.0605827 -32.93008538 108.51076975 -19.04760742 102.21191406 C-12.35517707 99.16633795 -12.35517707 99.16633795 -5.91015625 95.640625 C-3 94 -3 94 0 94 C0.07518327 99.01298895 0.12907998 104.02563671 0.16479492 109.0390625 C0.17971208 110.73801402 0.20005315 112.43692821 0.22631836 114.13574219 C0.42771172 127.51457931 -0.07370023 140.14740045 -6.1875 152.375 C-6.71730469 153.45523438 -7.24710938 154.53546875 -7.79296875 155.6484375 C-8.19128906 156.42445313 -8.58960938 157.20046875 -9 158 C-9.66 158 -10.32 158 -11 158 C-11.226875 158.70125 -11.45375 159.4025 -11.6875 160.125 C-16.96743398 171.69056967 -30.80004564 179.0836963 -42 184 C-43.32 184 -44.64 184 -46 184 C-46 184.66 -46 185.32 -46 186 C-47.32 186 -48.64 186 -50 186 C-50 186.66 -50 187.32 -50 188 C-50.825 188.3403125 -51.65 188.680625 -52.5 189.03125 C-59.25214434 191.86473914 -65.88827716 194.84730224 -72.4375 198.125 C-73.08654297 198.44919922 -73.73558594 198.77339844 -74.40429688 199.10742188 C-77.58592524 200.71618371 -80.67182174 202.39659089 -83.72265625 204.2421875 C-87 206 -87 206 -91 206 C-91 206.66 -91 207.32 -91 208 C-92.32 208 -93.64 208 -95 208 C-95 208.66 -95 209.32 -95 210 C-96.010625 210.33 -97.02125 210.66 -98.0625 211 C-102.41156117 212.62023848 -106.42444309 214.738089 -110.5 216.9375 C-111.15468262 217.29070312 -111.80936523 217.64390625 -112.48388672 218.0078125 C-114.32362525 219.00331597 -116.1620233 220.00124841 -118 221 C-125.39058172 225 -125.39058172 225 -130 225 C-130 225.66 -130 226.32 -130 227 C-131.32 227 -132.64 227 -134 227 C-134 227.66 -134 228.32 -134 229 C-135.5159375 229.804375 -135.5159375 229.804375 -137.0625 230.625 C-146.18788276 235.91294816 -153.61901434 243.84240672 -157 254 C-157.63153307 256.75607143 -158.13724445 259.52781396 -158.625 262.3125 C-158.7590625 263.05306641 -158.893125 263.79363281 -159.03125 264.55664062 C-159.35886984 266.37025044 -159.68008494 268.18501524 -160 270 C-160.33 269.34 -160.66 268.68 -161 268 C-161.66 268 -162.32 268 -163 268 C-166 264.53846154 -166 264.53846154 -166 262 C-166.66 262 -167.32 262 -168 262 C-168.66 260.35 -169.32 258.7 -170 257 C-170.66 257 -171.32 257 -172 257 C-172.66 255.02 -173.32 253.04 -174 251 C-174.66 251 -175.32 251 -176 251 C-176.79913872 249.16991133 -177.58890755 247.33573034 -178.375 245.5 C-179.03628906 243.96859375 -179.03628906 243.96859375 -179.7109375 242.40625 C-185.65949668 226.687633 -184.60527695 209.33119545 -178 194 C-176.73129153 191.61971669 -175.38597588 189.31588277 -174 187 C-173.34 187 -172.68 187 -172 187 C-171.814375 186.319375 -171.62875 185.63875 -171.4375 184.9375 C-169.41917747 180.81310179 -166.33712607 178.09621055 -163 175 C-164.57513866 172.24350734 -166.17905786 169.78001463 -168.1875 167.3125 C-170 165 -170 165 -170 163 C-170.66 163 -171.32 163 -172 163 C-182.31229715 150.41960231 -184.30472465 133.9896554 -183.23925781 118.36181641 C-182.1741094 107.84727998 -177.22657112 98.9703229 -172 90 C-171.34 90 -170.68 90 -170 90 C-170 89.34 -170 88.68 -170 88 C-169.34 88 -168.68 88 -168 88 C-167.731875 87.401875 -167.46375 86.80375 -167.1875 86.1875 C-166.00082594 84.00152146 -164.90400887 82.58667406 -163 81 C-162.34 81 -161.68 81 -161 81 C-161 80.34 -161 79.68 -161 79 C-150.24901137 70.88507108 -136.48682869 65.65006903 -124.31542969 60.01806641 C-118.68737847 57.38878034 -113.21924353 54.50943233 -107.82006836 51.4375 C-104.4969607 49.59354934 -102.91721405 49 -99 49 C-99 48.34 -99 47.68 -99 47 C-98.42258057 46.74420166 -97.84516113 46.48840332 -97.25024414 46.22485352 C-87.47326977 41.87813291 -77.72473095 37.53631271 -68.3125 32.4375 C-62.15825745 29.10584635 -55.9394476 25.95573781 -49.625 22.9375 C-48.80942627 22.54296631 -47.99385254 22.14843262 -47.15356445 21.74194336 C-46.39390381 21.38237549 -45.63424316 21.02280762 -44.8515625 20.65234375 C-44.17947754 20.33257568 -43.50739258 20.01280762 -42.81494141 19.68334961 C-41 19 -41 19 -38 19 C-38 18.34 -38 17.68 -38 17 C-36.68 17 -35.36 17 -34 17 C-34 16.34 -34 15.68 -34 15 C-32.56527344 14.39671875 -32.56527344 14.39671875 -31.1015625 13.78125 C-26.47416817 11.79708293 -21.92515376 9.65421342 -17.375 7.5 C-16.12589844 6.91412109 -16.12589844 6.91412109 -14.8515625 6.31640625 C-11.49951773 4.73112393 -8.26375368 3.16209121 -5.1015625 1.21875 C-3 0 -3 0 0 0 Z " fill="#02BE63" transform="translate(347,115)"/>
<path d="M0 0 C0 27.39 0 54.78 0 83 C-3.86705875 82.03323531 -6.76946015 80.73149595 -10.3125 78.9375 C-11.21705933 78.48093018 -11.21705933 78.48093018 -12.13989258 78.01513672 C-17.50954726 75.2885477 -22.82241571 72.45541808 -28.11254883 69.57788086 C-30.72400464 68.16568184 -33.17601326 66.94132891 -36 66 C-36 65.34 -36 64.68 -36 64 C-36.71478516 63.88825439 -37.42957031 63.77650879 -38.16601562 63.66137695 C-41.2139536 62.95006889 -43.57110431 61.86324731 -46.34375 60.41796875 C-47.34277344 59.89783203 -48.34179688 59.37769531 -49.37109375 58.84179688 C-50.40363281 58.29587891 -51.43617188 57.74996094 -52.5 57.1875 C-53.53253906 56.65318359 -54.56507813 56.11886719 -55.62890625 55.56835938 C-67.75421314 49.20844034 -67.75421314 49.20844034 -70.375 44.5625 C-71.32927144 40.6499871 -70.55120177 38.20208898 -68.8984375 34.59765625 C-66.43756149 31.23040822 -63.46818452 29.73472815 -59.8125 27.9375 C-58.86020508 27.44926758 -58.86020508 27.44926758 -57.88867188 26.95117188 C-55.9329037 25.95252382 -53.96803697 24.97422063 -52 24 C-50.67418491 23.33913167 -49.34866517 22.67767049 -48.0234375 22.015625 C-47.362229 21.68554443 -46.70102051 21.35546387 -46.01977539 21.01538086 C-43.97225502 19.98605205 -41.9327787 18.94208832 -39.89453125 17.89453125 C-38.53385417 17.20052083 -37.17317708 16.50651042 -35.8125 15.8125 C-34.78479492 15.27979492 -34.78479492 15.27979492 -33.73632812 14.73632812 C-30.16755685 12.92618139 -27.02064676 11.52307443 -23 11 C-23 10.34 -23 9.68 -23 9 C-21.68 9 -20.36 9 -19 9 C-19 8.34 -19 7.68 -19 7 C-16.58757287 5.82379175 -14.17072309 4.6589044 -11.75 3.5 C-11.06808594 3.16613281 -10.38617188 2.83226562 -9.68359375 2.48828125 C-6.1479008 0.80625256 -3.98070714 0 0 0 Z " fill="#03BE63" transform="translate(347,302)"/>
<path d="M0 0 C0 27.39 0 54.78 0 83 C-3.51330743 82.12167314 -6.0630858 81.07289018 -9.25 79.4375 C-10.14203125 78.98246094 -11.0340625 78.52742188 -11.953125 78.05859375 C-12.96632813 77.53458984 -12.96632813 77.53458984 -14 77 C-14 76.67 -14 76.34 -14 76 C-10.535 75.505 -10.535 75.505 -7 75 C-6.67 76.32 -6.34 77.64 -6 79 C-4.68 79 -3.36 79 -2 79 C-2 53.59 -2 28.18 -2 2 C-3.32 1.67 -4.64 1.34 -6 1 C-4 0 -4 0 0 0 Z " fill="#5BC996" transform="translate(347,302)"/>
<path d="M0 0 C0.99 0 1.98 0 3 0 C2.57074219 1.03253906 2.57074219 1.03253906 2.1328125 2.0859375 C0.90947283 5.23287334 -0.12428955 8.40048856 -1.125 11.625 C-1.47820312 12.75164062 -1.83140625 13.87828125 -2.1953125 15.0390625 C-3.13112776 17.97111025 -3.13112776 17.97111025 -3 21 C-2.34 21 -1.68 21 -1 21 C-1 20.34 -1 19.68 -1 19 C0.32 18.67 1.64 18.34 3 18 C3 18.66 3 19.32 3 20 C2.34 20 1.68 20 1 20 C1 20.66 1 21.32 1 22 C-0.96875 23.5078125 -0.96875 23.5078125 -3.5 25.125 C-4.3353125 25.66382813 -5.170625 26.20265625 -6.03125 26.7578125 C-6.6809375 27.16773438 -7.330625 27.57765625 -8 28 C-8.66 27.67 -9.32 27.34 -10 27 C-9.01 25.68 -8.02 24.36 -7 23 C-7.5053125 22.37351562 -8.010625 21.74703125 -8.53125 21.1015625 C-9.1809375 20.28429687 -9.830625 19.46703125 -10.5 18.625 C-11.1496875 17.81289063 -11.799375 17.00078125 -12.46875 16.1640625 C-14 14 -14 14 -14 12 C-14.66 12 -15.32 12 -16 12 C-16.99 10.02 -17.98 8.04 -19 6 C-18.38125 6.165 -17.7625 6.33 -17.125 6.5 C-14.48243927 7.12177899 -13.4501347 7.22506735 -11 6 C-10.34 6.33 -9.68 6.66 -9 7 C-9 9.33333333 -9 11.66666667 -9 14 C-7.824375 12.7625 -7.824375 12.7625 -6.625 11.5 C-4 9 -4 9 -2 9 C-2 7.35 -2 5.7 -2 4 C-1.34 4 -0.68 4 0 4 C0 2.68 0 1.36 0 0 Z " fill="#22C075" transform="translate(191,266)"/>
<path d="M0 0 C0.07518327 5.01298895 0.12907998 10.02563671 0.16479492 15.0390625 C0.17971208 16.73801402 0.20005315 18.43692821 0.22631836 20.13574219 C0.38430432 30.63096626 0.43231576 40.93015481 -3 51 C-3.99 51.495 -3.99 51.495 -5 52 C-4.85950482 50.52031676 -4.71245174 49.04125484 -4.5625 47.5625 C-4.48128906 46.73878906 -4.40007812 45.91507813 -4.31640625 45.06640625 C-4 43 -4 43 -3 42 C-2.91134792 39.1156618 -2.88478704 36.25537842 -2.90234375 33.37109375 C-2.9037587 32.50686295 -2.90517365 31.64263214 -2.90663147 30.75221252 C-2.91224761 27.98060708 -2.92480281 25.2090812 -2.9375 22.4375 C-2.94251292 20.5631522 -2.94707619 18.68880315 -2.95117188 16.81445312 C-2.96222228 12.20960456 -2.9794977 7.60481579 -3 3 C-3.41894531 3.49113281 -3.83789062 3.98226562 -4.26953125 4.48828125 C-6.96397985 6.84212235 -9.5667097 6.19433719 -13 6 C-9.09130466 2.84297684 -5.1385061 0 0 0 Z " fill="#5ECA98" transform="translate(347,209)"/>
<path d="M0 0 C0.66 0 1.32 0 2 0 C0.52966153 6.36032776 -0.74971425 10.95278567 -5 16 C-8.36680628 23.08628776 -8.53166603 30.34649206 -8.6875 38.0625 C-8.72166016 39.21427734 -8.75582031 40.36605469 -8.79101562 41.55273438 C-8.87279821 44.3683921 -8.94217375 47.18376571 -9 50 C-13.68864818 42.96702773 -11.72402103 30.24007526 -10.34765625 22.1796875 C-8.07068974 14.2249633 -4.14615935 7.11602068 0 0 Z " fill="#44C288" transform="translate(175,205)"/>
<path d="M0 0 C0.99 0 1.98 0 3 0 C3 12.21 3 24.42 3 37 C2.67 37 2.34 37 2 37 C1.67 25.78 1.34 14.56 1 3 C-2.72053412 4.48821365 -5.75281868 5.74501297 -9 8 C-9.33 8.99 -9.66 9.98 -10 11 C-10.928125 10.95875 -11.85625 10.9175 -12.8125 10.875 C-16.15809719 10.72863661 -16.15809719 10.72863661 -19 13 C-21.6875 13.125 -21.6875 13.125 -24 13 C-21.2806004 10.84596655 -18.635155 9.22665265 -15.48828125 7.7734375 C-14.22854492 7.185625 -14.22854492 7.185625 -12.94335938 6.5859375 C-12.07517578 6.18632813 -11.20699219 5.78671875 -10.3125 5.375 C-8.57856121 4.57217999 -6.84544166 3.76758737 -5.11328125 2.9609375 C-4.34798096 2.60821777 -3.58268066 2.25549805 -2.79418945 1.89208984 C-1.02508855 1.13120402 -1.02508855 1.13120402 0 0 Z " fill="#6FD2A6" transform="translate(344,115)"/>
<path d="M0 0 C0.90241335 3.03235194 1.06192673 5.55923096 0.87890625 8.7109375 C0.83048584 9.62020996 0.78206543 10.52948242 0.73217773 11.46630859 C0.67618408 12.42617676 0.62019043 13.38604492 0.5625 14.375 C0.1125879 22.93248305 -0.13163465 31.42912162 0 40 C-0.33 40 -0.66 40 -1 40 C-2.81601453 33.78503395 -3.34992168 28.1491723 -3.3125 21.6875 C-3.31121094 20.76557861 -3.30992187 19.84365723 -3.30859375 18.89379883 C-3.2149626 12.25710582 -2.44859553 6.22351364 0 0 Z " fill="#41C388" transform="translate(167,314)"/>
<path d="M0 0 C1.98 0 3.96 0 6 0 C2.35581729 3.0652891 -1.70464045 4.85476077 -6 6.8125 C-12.33261189 9.73660274 -18.58104623 12.76406242 -24.77734375 15.96875 C-27 17 -27 17 -29 17 C-28.505 15.515 -28.505 15.515 -28 14 C-27.34 14 -26.68 14 -26 14 C-25.67 13.01 -25.34 12.02 -25 11 C-22.36 11 -19.72 11 -17 11 C-17 10.34 -17 9.68 -17 9 C-15.68 9 -14.36 9 -13 9 C-13 8.34 -13 7.68 -13 7 C-12.01 6.67 -11.02 6.34 -10 6 C-9.67 5.34 -9.34 4.68 -9 4 C-7.35 4 -5.7 4 -4 4 C-4 3.34 -4 2.68 -4 2 C-2.68 2 -1.36 2 0 2 C0 1.34 0 0.68 0 0 Z " fill="#5DCC9B" transform="translate(309,199)"/>
<path d="M0 0 C0.99 0.33 1.98 0.66 3 1 C2.12275381 10.47425883 -0.50318182 18.62661442 -5 27 C-5.33 27 -5.66 27 -6 27 C-6.32613618 22.32538149 -5.70582788 19.83325617 -3 16 C-3.66 15.67 -4.32 15.34 -5 15 C-4.34 14.67 -3.68 14.34 -3 14 C-2.67 13.01 -2.34 12.02 -2 11 C-1.34 11 -0.68 11 0 11 C0 7.37 0 3.74 0 0 Z " fill="#3FC489" transform="translate(343,152)"/>
<path d="M0 0 C1 3 1 3 0.25 5 C-1 7 -1 7 -2.5 8.4375 C-4.40443404 10.42128546 -5.00505527 12.45045413 -6 15 C-7.93391627 18.02699938 -8.51236025 18.83745342 -12 20 C-11.42365861 15.24518354 -9.44931479 12.02951788 -7 8 C-6.34 8 -5.68 8 -5 8 C-4.731875 7.236875 -4.46375 6.47375 -4.1875 5.6875 C-3.05575888 3.12619116 -2.08776599 1.80307062 0 0 Z " fill="#44C38A" transform="translate(180,294)"/>
<path d="M0 0 C-11.9140625 5.95703125 -11.9140625 5.95703125 -14.01269531 7.00244141 C-15.81546414 7.90736935 -17.60761529 8.83337298 -19.3984375 9.76171875 C-22 11 -22 11 -24 11 C-23.67 9.68 -23.34 8.36 -23 7 C-19.535 6.505 -19.535 6.505 -16 6 C-16 5.34 -16 4.68 -16 4 C-14.02 4 -12.04 4 -10 4 C-10 3.01 -10 2.02 -10 1 C-3.375 -1.125 -3.375 -1.125 0 0 Z " fill="#3EC288" transform="translate(259,227)"/>
<path d="M0 0 C3.46941546 0.45822468 6.67395049 0.89131683 10 2 C12.14255793 1.61067144 12.14255793 1.61067144 14 1 C14.45375 1.969375 14.9075 2.93875 15.375 3.9375 C16.65786221 7.07079582 16.65786221 7.07079582 19 8 C18.67 8.66 18.34 9.32 18 10 C17.01 9.67 16.02 9.34 15 9 C15 8.34 15 7.68 15 7 C14.28457031 6.88785156 13.56914062 6.77570313 12.83203125 6.66015625 C9.80884002 5.95543995 7.43677312 4.86712202 4.6875 3.4375 C3.80449219 2.98246094 2.92148437 2.52742188 2.01171875 2.05859375 C1.34785156 1.70925781 0.68398438 1.35992187 0 1 C0 0.67 0 0.34 0 0 Z " fill="#2CC07B" transform="translate(296,359)"/>
<path d="M0 0 C3.625 0.375 3.625 0.375 7 1 C4.10414095 3.29648357 1.1827969 5.04347557 -2.125 6.6875 C-3.42824219 7.34298828 -3.42824219 7.34298828 -4.7578125 8.01171875 C-7 9 -7 9 -9 9 C-8.67 7.35 -8.34 5.7 -8 4 C-6.576875 3.566875 -6.576875 3.566875 -5.125 3.125 C-1.94788422 2.23174891 -1.94788422 2.23174891 0 0 Z " fill="#3EC78A" transform="translate(220,241)"/>
<path d="M0 0 C-1.41042956 0.84384675 -2.82864132 1.67469496 -4.25 2.5 C-5.43335938 3.19609375 -5.43335938 3.19609375 -6.640625 3.90625 C-9 5 -9 5 -13 5 C-13 5.66 -13 6.32 -13 7 C-14.32 7 -15.64 7 -17 7 C-17 7.66 -17 8.32 -17 9 C-18.65 9.33 -20.3 9.66 -22 10 C-22 9.34 -22 8.68 -22 8 C-21.01 8 -20.02 8 -19 8 C-19 7.01 -19 6.02 -19 5 C-17.35 5 -15.7 5 -14 5 C-14 4.34 -14 3.68 -14 3 C-10.535 2.505 -10.535 2.505 -7 2 C-7 1.34 -7 0.68 -7 0 C-3.98968256 -0.93423645 -3.13349732 -1.04449911 0 0 Z " fill="#4DC38B" transform="translate(314,294)"/>
<path d="M0 0 C0.66 0.33 1.32 0.66 2 1 C0 4 0 4 -3.375 5.4375 C-7.02366772 6.70687908 -7.02366772 6.70687908 -9 9.25 C-9.66 9.8275 -10.32 10.405 -11 11 C-14.75 10.75 -14.75 10.75 -18 10 C-14.56861368 7.20661013 -10.81217239 5.22264513 -6.875 3.25 C-5.92560547 2.75693359 -5.92560547 2.75693359 -4.95703125 2.25390625 C-3.33560094 1.43802731 -1.66987872 0.71147715 0 0 Z " fill="#47C78C" transform="translate(295,233)"/>
<path d="M0 0 C0.33 0 0.66 0 1 0 C0.42978066 5.3503559 -0.20734361 10.67787852 -1 16 C-1.33 15.34 -1.66 14.68 -2 14 C-2.66 14 -3.32 14 -4 14 C-7 10.53846154 -7 10.53846154 -7 8 C-7.66 8 -8.32 8 -9 8 C-8.67 7.34 -8.34 6.68 -8 6 C-5.69 6.33 -3.38 6.66 -1 7 C-0.67 4.69 -0.34 2.38 0 0 Z " fill="#51C48E" transform="translate(188,369)"/>
<path d="M0 0 C1.625 2 1.625 2 3 4 C1.02 4.99 -0.96 5.98 -3 7 C-3 6.34 -3 5.68 -3 5 C-6.3 5.66 -9.6 6.32 -13 7 C-13 6.34 -13 5.68 -13 5 C-11.21046815 4.16209211 -9.41830305 3.32980604 -7.625 2.5 C-6.62726563 2.0359375 -5.62953125 1.571875 -4.6015625 1.09375 C-2 0 -2 0 0 0 Z " fill="#35C582" transform="translate(341,304)"/>
<path d="M0 0 C1.64666203 0.1135629 3.29236082 0.24117381 4.9375 0.375 C5.85402344 0.44460938 6.77054687 0.51421875 7.71484375 0.5859375 C8.84599609 0.79089844 8.84599609 0.79089844 10 1 C10.33 1.66 10.66 2.32 11 3 C13.02463255 3.65213292 13.02463255 3.65213292 15 4 C15 4.66 15 5.32 15 6 C15.99 6 16.98 6 18 6 C17.67 6.99 17.34 7.98 17 9 C11.39 6.36 5.78 3.72 0 1 C0 0.67 0 0.34 0 0 Z " fill="#42C289" transform="translate(315,369)"/>
<path d="M0 0 C-0.26171875 1.90234375 -0.26171875 1.90234375 -1 4 C-2.70703125 4.94140625 -2.70703125 4.94140625 -4.8125 5.5625 C-8.03561166 6.61565318 -10.41237455 7.73582773 -13 10 C-14.32 9.34 -15.64 8.68 -17 8 C-14.54429825 6.66161267 -12.08570084 5.32913768 -9.625 4 C-8.92632812 3.6184375 -8.22765625 3.236875 -7.5078125 2.84375 C-2.2265625 0 -2.2265625 0 0 0 Z " fill="#46C488" transform="translate(315,224)"/>
<path d="M0 0 C0.66 0.99 1.32 1.98 2 3 C2.66 3 3.32 3 4 3 C4 2.34 4 1.68 4 1 C5.32 0.67 6.64 0.34 8 0 C8 0.66 8 1.32 8 2 C7.34 2 6.68 2 6 2 C6 2.66 6 3.32 6 4 C4.03125 5.5078125 4.03125 5.5078125 1.5 7.125 C0.6646875 7.66382813 -0.170625 8.20265625 -1.03125 8.7578125 C-1.6809375 9.16773438 -2.330625 9.57765625 -3 10 C-3.66 9.67 -4.32 9.34 -5 9 C-4.01 7.68 -3.02 6.36 -2 5 C-2.66 3.68 -3.32 2.36 -4 1 C-2.02 1.495 -2.02 1.495 0 2 C0 1.34 0 0.68 0 0 Z " fill="#43C289" transform="translate(186,284)"/>
<path d="M0 0 C0.66 0.33 1.32 0.66 2 1 C1.01 2.485 1.01 2.485 0 4 C-1.32 4 -2.64 4 -4 4 C-3.67 4.99 -3.34 5.98 -3 7 C-5.91708924 8.98362069 -7.12380904 8.9876191 -10.75 8.625 C-11.8225 8.41875 -12.895 8.2125 -14 8 C-11.10181338 5.70841058 -8.16859456 3.92137634 -4.875 2.25 C-4.00617188 1.80140625 -3.13734375 1.3528125 -2.2421875 0.890625 C-1.50226563 0.59671875 -0.76234375 0.3028125 0 0 Z " fill="#3CC684" transform="translate(275,149)"/>
<path d="M0 0 C1.85776765 3.13498292 2.20140476 5.37471432 2 9 C3.32 9 4.64 9 6 9 C6 9.66 6 10.32 6 11 C7.32 11.33 8.64 11.66 10 12 C10 12.99 10 13.98 10 15 C5.55366401 13.60258012 2.9510291 11.60681335 0 8 C-1.41772152 2.83544304 -1.41772152 2.83544304 0 0 Z " fill="#4BC58B" transform="translate(277,339)"/>
<path d="M0 0 C1.32 0.33 2.64 0.66 4 1 C3.01 1 2.02 1 1 1 C1 1.66 1 2.32 1 3 C-0.65532623 4.01866229 -2.32260138 5.01810813 -4 6 C-4.33 6.66 -4.66 7.32 -5 8 C-8.71901707 9.96281457 -10.97215907 10.15081169 -15 9 C-10.79066147 5.49221789 -5.5744558 2 0 2 C0 1.34 0 0.68 0 0 Z " fill="#45C489" transform="translate(272,244)"/>
<path d="M0 0 C0.66 0 1.32 0 2 0 C2.33 0.99 2.66 1.98 3 3 C3.66 3.33 4.32 3.66 5 4 C5 4.66 5 5.32 5 6 C5.66 6 6.32 6 7 6 C7.69699552 7.45381897 8.38233866 8.91322953 9.0625 10.375 C9.44535156 11.18710937 9.82820312 11.99921875 10.22265625 12.8359375 C10.60744141 13.90714844 10.60744141 13.90714844 11 15 C10.67 15.66 10.34 16.32 10 17 C9.67 16.01 9.34 15.02 9 14 C8.34 14 7.68 14 7 14 C6.34 12.02 5.68 10.04 5 8 C4.34 8 3.68 8 3 8 C0 2.25 0 2.25 0 0 Z " fill="#65CA9B" transform="translate(168,358)"/>
<path d="M0 0 C0.66 0.33 1.32 0.66 2 1 C1.360625 1.2475 0.72125 1.495 0.0625 1.75 C-2.18741541 2.81562433 -2.18741541 2.81562433 -2.75 5.125 C-2.8325 5.74375 -2.915 6.3625 -3 7 C-6.67410785 8.17571451 -10.16929183 8.07366746 -14 8 C-11.10181338 5.70841058 -8.16859456 3.92137634 -4.875 2.25 C-4.00617188 1.80140625 -3.13734375 1.3528125 -2.2421875 0.890625 C-1.50226563 0.59671875 -0.76234375 0.3028125 0 0 Z " fill="#48C78D" transform="translate(238,261)"/>
<path d="M0 0 C0.66 0.33 1.32 0.66 2 1 C-0.57693093 5.29488489 -2.64080034 7.59096861 -7 10 C-7.99 11.485 -7.99 11.485 -9 13 C-9.99 13 -10.98 13 -12 13 C-12 12.34 -12 11.68 -12 11 C-11.34 11 -10.68 11 -10 11 C-9.731875 10.401875 -9.46375 9.80375 -9.1875 9.1875 C-8.00082594 7.00152146 -6.90400887 5.58667406 -5 4 C-4.34 4 -3.68 4 -3 4 C-3 3.34 -3 2.68 -3 2 C-2.01 1.34 -1.02 0.68 0 0 Z " fill="#49C58A" transform="translate(189,192)"/>
<path d="M0 0 C-0.625 2.375 -0.625 2.375 -2 5 C-6.04628965 6.93118369 -9.55823606 7.21151257 -14 7 C-10.33997803 3.94998169 -4.92148529 0 0 0 Z " fill="#3BBF81" transform="translate(210,182)"/>
<path d="M0 0 C0.66 0.33 1.32 0.66 2 1 C1.34 2.98 0.68 4.96 0 7 C-2.64 6.34 -5.28 5.68 -8 5 C-8 5.66 -8 6.32 -8 7 C-9.32 6.67 -10.64 6.34 -12 6 C-11.01 6 -10.02 6 -9 6 C-9 5.34 -9 4.68 -9 4 C-7.68 4 -6.36 4 -5 4 C-5 3.34 -5 2.68 -5 2 C-2.625 0.9375 -2.625 0.9375 0 0 Z " fill="#41C689" transform="translate(318,128)"/>
<path d="M0 0 C0.99 0.33 1.98 0.66 3 1 C2.34 2.65 1.68 4.3 1 6 C0.34 6 -0.32 6 -1 6 C-1.33 8.31 -1.66 10.62 -2 13 C-2.33 13 -2.66 13 -3 13 C-3.33 10.03 -3.66 7.06 -4 4 C-3.01 4 -2.02 4 -1 4 C-0.67 2.68 -0.34 1.36 0 0 Z " fill="#25BD76" transform="translate(189,363)"/>
<path d="M0 0 C1.98 0 3.96 0 6 0 C2.9377256 2.48627517 -0.1457054 4.09989404 -3.75 5.6875 C-4.73484375 6.12449219 -5.7196875 6.56148438 -6.734375 7.01171875 C-7.48203125 7.33785156 -8.2296875 7.66398437 -9 8 C-9.33 7.34 -9.66 6.68 -10 6 C-9.34 6 -8.68 6 -8 6 C-8 5.34 -8 4.68 -8 4 C-5.09399739 2.74335022 -3.20395416 2 0 2 C0 1.34 0 0.68 0 0 Z " fill="#4CC68F" transform="translate(276,309)"/>
<path d="M0 0 C-1.1858237 3.37503669 -2.27573689 5.64722731 -5 8 C-5.33 7.34 -5.66 6.68 -6 6 C-8.01669827 4.86649466 -8.01669827 4.86649466 -10 4 C-8.71086513 3.32845067 -7.41859796 2.66291141 -6.125 2 C-5.40570313 1.62875 -4.68640625 1.2575 -3.9453125 0.875 C-2 0 -2 0 0 0 Z " fill="#2DBF78" transform="translate(306,135)"/>
<path d="M0 0 C-1.62249941 0.83819158 -3.24808497 1.6704116 -4.875 2.5 C-6.23238281 3.19609375 -6.23238281 3.19609375 -7.6171875 3.90625 C-10 5 -10 5 -12 5 C-12 3.35 -12 1.7 -12 0 C-10.56359829 -0.19573608 -9.12580496 -0.38127816 -7.6875 -0.5625 C-6.88699219 -0.66691406 -6.08648437 -0.77132812 -5.26171875 -0.87890625 C-3 -1 -3 -1 0 0 Z " fill="#4DC68D" transform="translate(280,217)"/>
<path d="M0 0 C-0.33 1.98 -0.66 3.96 -1 6 C-2.32 6.33 -3.64 6.66 -5 7 C-5 6.01 -5 5.02 -5 4 C-5.99 3.67 -6.98 3.34 -8 3 C-2.25 0 -2.25 0 0 0 Z " fill="#32C782" transform="translate(334,215)"/>
<path d="M0 0 C2.31 0 4.62 0 7 0 C4.45217026 2.97246802 1.54659117 4.41535288 -2 6 C-2.66 6 -3.32 6 -4 6 C-3.67 5.01 -3.34 4.02 -3 3 C-2.34 3 -1.68 3 -1 3 C-0.67 2.01 -0.34 1.02 0 0 Z " fill="#39BE7F" transform="translate(284,210)"/>
<path d="M0 0 C0 3 0 3 -1 5 C-3.28515625 5.4140625 -3.28515625 5.4140625 -6.0625 5.625 C-6.98160156 5.69976562 -7.90070313 5.77453125 -8.84765625 5.8515625 C-9.91306641 5.92503906 -9.91306641 5.92503906 -11 6 C-7.47566693 3.21640065 -4.14264098 1.67298963 0 0 Z " fill="#50C88E" transform="translate(221,176)"/>
<path d="M0 0 C-1.32 0.33 -2.64 0.66 -4 1 C-4 1.66 -4 2.32 -4 3 C-5.32 3 -6.64 3 -8 3 C-8 3.66 -8 4.32 -8 5 C-9.32 4.67 -10.64 4.34 -12 4 C-12 3.34 -12 2.68 -12 2 C-8.09971775 -0.60018816 -4.52565431 -0.15085514 0 0 Z " fill="#46C78A" transform="translate(221,339)"/>
<path d="M0 0 C0.66 0.33 1.32 0.66 2 1 C-3.14285714 6.57142857 -3.14285714 6.57142857 -7 7 C-5.55609075 3.19333016 -3.65047197 1.73397418 0 0 Z " fill="#4CC690" transform="translate(285,331)"/>
<path d="M0 0 C-3.96 1.98 -7.92 3.96 -12 6 C-12.33 5.34 -12.66 4.68 -13 4 C-12.01 4 -11.02 4 -10 4 C-10 3.01 -10 2.02 -10 1 C-3.375 -1.125 -3.375 -1.125 0 0 Z " fill="#5CCC97" transform="translate(259,227)"/>
<path d="M0 0 C0.99 0 1.98 0 3 0 C2.731875 0.61875 2.46375 1.2375 2.1875 1.875 C0.5516213 6.17994393 -0.71271326 10.58031552 -2 15 C-2.33 15 -2.66 15 -3 15 C-3.08912219 11.16774573 -2.87867729 7.73437848 -2 4 C-1.34 4 -0.68 4 0 4 C0 2.68 0 1.36 0 0 Z " fill="#60CD9F" transform="translate(191,266)"/>
<path d="M0 0 C2.125 0.9375 2.125 0.9375 4 2 C1.82575883 4.50037734 0.26954202 5.43628586 -3 6 C-2.625 3.5625 -2.625 3.5625 -2 1 C-1.34 0.67 -0.68 0.34 0 0 Z " fill="#34C482" transform="translate(214,244)"/>
<path d="M0 0 C-0.99 1.485 -0.99 1.485 -2 3 C-2 2.34 -2 1.68 -2 1 C-2.350625 1.495 -2.70125 1.99 -3.0625 2.5 C-5.94374289 4.73063966 -8.47009026 4.19980621 -12 4 C-4.75 -1.69642857 -4.75 -1.69642857 0 0 Z " fill="#3EC285" transform="translate(346,211)"/>
<path d="M0 0 C4.72463088 0.46319911 8.17057052 1.09891706 12 4 C12 4.66 12 5.32 12 6 C7.96479403 4.41037341 3.98188718 2.71767682 0 1 C0 0.67 0 0.34 0 0 Z " fill="#50C692" transform="translate(296,359)"/>
<path d="M0 0 C0 1.65 0 3.3 0 5 C-2.64 3.68 -5.28 2.36 -8 1 C-8 0.67 -8 0.34 -8 0 C-4.71303767 -0.79953138 -3.28976808 -1.09658936 0 0 Z " fill="#3EC78B" transform="translate(341,378)"/>
<path d="M0 0 C1.32 0.66 2.64 1.32 4 2 C0.375 6.875 0.375 6.875 -3 8 C-2.45276317 4.62537285 -1.9451 2.91765 0 0 Z " fill="#50C991" transform="translate(171,306)"/>
<path d="M0 0 C0.66 0.33 1.32 0.66 2 1 C0 4 0 4 -2.1640625 4.51171875 C-2.97617187 4.56972656 -3.78828125 4.62773437 -4.625 4.6875 C-5.85089844 4.78611328 -5.85089844 4.78611328 -7.1015625 4.88671875 C-7.72804688 4.92410156 -8.35453125 4.96148437 -9 5 C-6.32239719 2.32239719 -3.52050129 1.32018799 0 0 Z " fill="#65D09B" transform="translate(324,219)"/>
<path d="M0 0 C0.99 0.33 1.98 0.66 3 1 C2.67 3.64 2.34 6.28 2 9 C1.34 9 0.68 9 0 9 C0 6.03 0 3.06 0 0 Z " fill="#33BD7E" transform="translate(343,152)"/>
<path d="M0 0 C1.32 0.66 2.64 1.32 4 2 C2.35 2.66 0.7 3.32 -1 4 C-1 4.66 -1 5.32 -1 6 C-2.32 6.33 -3.64 6.66 -5 7 C-5 5.68 -5 4.36 -5 3 C-3.35 3 -1.7 3 0 3 C0 2.01 0 1.02 0 0 Z " fill="#49C48C" transform="translate(320,192)"/>
<path d="M0 0 C-3.3 1.32 -6.6 2.64 -10 4 C-10.33 3.34 -10.66 2.68 -11 2 C-10.34 2 -9.68 2 -9 2 C-9 1.34 -9 0.68 -9 0 C-5.32431536 -0.91892116 -3.83619425 -0.95904856 0 0 Z " fill="#43C189" transform="translate(292,305)"/>
<path d="M0 0 C-1.45264038 0.8638129 -2.9123163 1.71580454 -4.375 2.5625 C-5.59316406 3.27599609 -5.59316406 3.27599609 -6.8359375 4.00390625 C-7.55007813 4.33261719 -8.26421875 4.66132813 -9 5 C-9.66 4.67 -10.32 4.34 -11 4 C-10.67 3.34 -10.34 2.68 -10 2 C-9.01 2 -8.02 2 -7 2 C-7 1.34 -7 0.68 -7 0 C-3.98968256 -0.93423645 -3.13349732 -1.04449911 0 0 Z " fill="#5DC99A" transform="translate(314,294)"/>
<path d="M0 0 C2.31 0 4.62 0 7 0 C7 0.66 7 1.32 7 2 C2.52941176 6 2.52941176 6 0 6 C0.185625 5.38125 0.37125 4.7625 0.5625 4.125 C1.23686176 1.95839822 1.23686176 1.95839822 0 0 Z " fill="#4FCB93" transform="translate(322,282)"/>
<path d="M0 0 C0.99 0 1.98 0 3 0 C1.73058503 3.91402949 0.48832306 5.79072873 -3 8 C-2.67 6.35 -2.34 4.7 -2 3 C-1.34 3 -0.68 3 0 3 C0 2.01 0 1.02 0 0 Z " fill="#47C38B" transform="translate(333,273)"/>
<path d="M0 0 C0 0.66 0 1.32 0 2 C-0.66 2 -1.32 2 -2 2 C-2.66 3.32 -3.32 4.64 -4 6 C-5.32 5.01 -6.64 4.02 -8 3 C-2.25 0 -2.25 0 0 0 Z " fill="#49C88E" transform="translate(220,271)"/>
<path d="M0 0 C-0.33 1.32 -0.66 2.64 -1 4 C-3.375 4.625 -3.375 4.625 -6 5 C-6.66 4.34 -7.32 3.68 -8 3 C-2.25 0 -2.25 0 0 0 Z " fill="#53CC99" transform="translate(315,224)"/>
<path d="M0 0 C0.33 0 0.66 0 1 0 C0.67 3.3 0.34 6.6 0 10 C-0.99 10 -1.98 10 -3 10 C-2.39009109 6.44219804 -1.4216319 3.3171411 0 0 Z " fill="#50C990" transform="translate(169,216)"/>
<path d="M0 0 C1.98 0 3.96 0 6 0 C2.79663178 2.83374881 0.21912747 3.5205537 -4 4 C-4 3.34 -4 2.68 -4 2 C-2.68 2 -1.36 2 0 2 C0 1.34 0 0.68 0 0 Z " fill="#42C187" transform="translate(309,199)"/>
<path d="M0 0 C0.66 0.33 1.32 0.66 2 1 C0.02579865 3.52259061 -0.96745642 3.9929808 -4.1875 4.6875 C-5.5796875 4.8421875 -5.5796875 4.8421875 -7 5 C-7 4.34 -7 3.68 -7 3 C-4.69631264 1.93347808 -2.35981813 0.93578995 0 0 Z " fill="#61C99B" transform="translate(255,159)"/>
<path d="M0 0 C-0.66 0 -1.32 0 -2 0 C-2.33 0.99 -2.66 1.98 -3 3 C-5.31 3.33 -7.62 3.66 -10 4 C-7.99220736 -0.01558529 -4.07814299 -1.359381 0 0 Z " fill="#6FD0A1" transform="translate(296,141)"/>
<path d="M0 0 C-1.27514492 2.55028983 -2.40341297 2.93081711 -5 4 C-5.99 4 -6.98 4 -8 4 C-8 3.34 -8 2.68 -8 2 C-4.77208445 -0.1519437 -3.71599191 -0.20086443 0 0 Z " fill="#42BD84" transform="translate(248,325)"/>
</svg>
